<svg id="Capa_1" xmlns="http://www.w3.org/2000/svg" version="1.1" viewBox="358 960 132 168">
  <defs>
    <style>
      .st0 {
        fill: #000000;
        fill-rule: evenodd;
      }
    </style>
  </defs>
  <path class="st0" d="M456.7,1028.8c0-10.2-3.2-18.4-9.6-24.7-6.4-6.3-14.3-9.4-23.7-9.4s-17.3,3.1-23.6,9.4c-6.4,6.3-9.5,14.5-9.5,24.7s3.2,17.5,9.7,23.9c2.3,2.3,4.8,4.2,7.5,5.7v-12.3h32v12.4c2.7-1.5,5.2-3.4,7.5-5.7,6.5-6.4,9.8-14.4,9.8-23.9h0ZM439.4,1092.2v15.9h-32v-15.9c-12.4-2.6-22.8-8.4-31.4-17.3-12-12.6-18-28-18-46.4s6.1-33.8,18.4-46.5c12.2-12.7,28.1-19.1,47.6-19.1s35.2,6.3,47.1,19c12,12.7,17.9,28.2,17.9,46.6s-6.1,33.8-18.3,46.4c-8.6,8.9-19.1,14.7-31.3,17.3Z"/>
</svg>
