<svg id="Capa_1" xmlns="http://www.w3.org/2000/svg" version="1.1" viewBox="100 760 650 180">
  <defs>
    <style>
      .st0 {
        fill: #ffffff;
        fill-rule: evenodd;
      }
    </style>
  </defs>
  <path class="st0" d="M290.5,774.5h1.7l66.8,127.5-1,1.4h-32.6l-7.7-16.8h-53.1l-7.9,16.8h-32l-1-1.4,66.8-127.5h0ZM291.3,828.9l-13.7,29.4h27.1l-13.4-29.4Z"/>
  <path class="st0" d="M555.1,774.5h-1.7l-66.8,127.5,1,1.4h32.6l7.7-16.8h53.1l7.9,16.8h32l1-1.4-66.8-127.5h0ZM554.3,828.9l13.7,29.4h-27.1l13.4-29.4Z"/>
  <polygon class="st0" points="382.5 905.4 380.8 905.4 330.1 778.1 331.3 776.6 365.3 776.6 387 842.3 422.8 773.7 458.6 842.3 480.3 776.6 514.3 776.6 515.5 778.1 464.8 905.4 463.1 905.4 422.8 833.3 382.5 905.4"/>
  <path class="st0" d="M198.9,840.3c0-10.2-3.2-18.4-9.6-24.7-6.4-6.3-14.3-9.4-23.7-9.4s-17.3,3.1-23.6,9.4c-6.4,6.3-9.5,14.5-9.5,24.7s3.2,17.5,9.7,23.9c2.3,2.3,4.8,4.2,7.5,5.7v-12.3h32v12.4c2.7-1.5,5.2-3.4,7.5-5.7,6.5-6.4,9.8-14.4,9.8-23.9h0ZM181.6,903.7v15.9h-32v-15.9c-12.4-2.6-22.8-8.4-31.4-17.3-12-12.6-18-28-18-46.4s6.1-33.8,18.4-46.5c12.2-12.7,28.1-19.1,47.6-19.1s35.2,6.3,47.1,19c12,12.7,17.9,28.2,17.9,46.6s-6.1,33.8-18.3,46.4c-8.6,8.9-19.1,14.7-31.3,17.3Z"/>
  <path class="st0" d="M712.6,840.3c0-10.2-3.2-18.4-9.6-24.7-6.4-6.3-14.3-9.4-23.7-9.4s-17.3,3.1-23.6,9.4c-6.4,6.3-9.5,14.5-9.5,24.7s3.2,17.5,9.7,23.9c2.3,2.3,4.8,4.2,7.5,5.7v-12.3h32v12.4c2.7-1.5,5.2-3.4,7.5-5.7,6.5-6.4,9.8-14.4,9.8-23.9h0ZM695.3,903.7v15.9h-32v-15.9c-12.4-2.6-22.8-8.4-31.4-17.3-12-12.6-18-28-18-46.4s6.1-33.8,18.4-46.5c12.2-12.7,28.1-19.1,47.6-19.1s35.2,6.3,47.1,19c12,12.7,17.9,28.2,17.9,46.6s-6.1,33.8-18.3,46.4c-8.6,8.9-19.1,14.7-31.3,17.3Z"/>
</svg>
